<svg xmlns="http://www.w3.org/2000/svg" viewBox="0 0 32 32">
  <!-- Background (optional, transparent by default) -->
  <rect width="32" height="32" fill="none"/>
  
  <!-- GS Logo Group -->
  <g transform="translate(2, 2) scale(0.875)">
    <!-- G part -->
    <path d="M4 8 L14 8 L14 11 L7 11 L7 21 L14 21 L14 18 L10 18 L10 15 L14 15 L14 24 L4 24 C4 24 4 8 4 8" 
          fill="#2F3640"/>
    
    <!-- Lightning Bolt -->
    <path d="M13.5 13 L18 13 L15 17.5 L19 17.5 L14 24 L15.5 17.5 L12.5 17.5 L13.5 13" 
          fill="#40C4DE"/>
    
    <!-- S part -->
    <path d="M18 8 L28 8 L28 11 L21 11 L21 15 L28 15 L28 24 L18 24 L18 21 L25 21 L25 18 L18 18 Z" 
          fill="#2F3640"/>
  </g>
</svg> 